<?xml version="1.0" encoding="UTF-8" standalone="no"?>
<!DOCTYPE svg PUBLIC "-//W3C//DTD SVG 1.1//EN" "http://www.w3.org/Graphics/SVG/1.1/DTD/svg11.dtd">
<svg version="1.1" xmlns="http://www.w3.org/2000/svg" xmlns:xlink="http://www.w3.org/1999/xlink" preserveAspectRatio="xMidYMid meet" viewBox="9 9 624 624" width="620" height="620"><defs><path d="M320 630C491.25 630 630 491.25 630 320C630 148.75 491.25 10 320 10C148.75 10 10 148.75 10 320C10 491.25 148.75 630 320 630ZM320 570C181.88 570 70 458.13 70 320C70 181.88 181.88 70 320 70C458.13 70 570 181.88 570 320C570 458.13 458.13 570 320 570ZM480 345C480 353.25 473.25 360 465 360C455.33 360 407 360 320 360C320 410.25 320 438.17 320 443.75C320 457.13 303.88 463.75 294.38 454.38C282 442 183 343 170.63 330.63C164.75 324.75 164.75 315.25 170.63 309.38C183 297 282 198 294.38 185.63C303.88 176.13 320 182.88 320 196.25C320 201.83 320 229.75 320 280C407 280 455.33 280 465 280C473.25 280 480 286.75 480 295C480 305 480 340 480 345Z" id="b4VtTY8m65"></path></defs><g><g><use xlink:href="#b4VtTY8m65" opacity="1" fill="#333333" fill-opacity="1"></use><g><use xlink:href="#b4VtTY8m65" opacity="1" fill-opacity="0" stroke="#000000" stroke-width="1" stroke-opacity="0"></use></g></g></g></svg>