<?xml version="1.0" encoding="utf-8"?>
<!-- Svg Vector Icons : http://www.onlinewebfonts.com/icon -->
<!DOCTYPE svg PUBLIC "-//W3C//DTD SVG 1.1//EN" "http://www.w3.org/Graphics/SVG/1.1/DTD/svg11.dtd">
<svg version="1.1" xmlns="http://www.w3.org/2000/svg" xmlns:xlink="http://www.w3.org/1999/xlink" x="0px" y="0px" viewBox="0 0 1000 1000" enable-background="new 0 0 1000 1000" xml:space="preserve">
<metadata> Svg Vector Icons : http://www.onlinewebfonts.com/icon </metadata>
<g><path d="M941.9,118.8c-25.6-16.8-61.5-31.7-106.7-44.3c-89.8-25-208.9-38.7-335.2-38.7c-126.3,0-245.3,13.8-335.2,38.7C119.6,87.1,83.7,102,58.1,118.8c-31.9,21-48.1,45.1-48.1,71.7v618.9c0,26.7,16.2,50.8,48.1,71.7c25.6,16.8,61.5,31.7,106.7,44.3c89.9,25,208.9,38.7,335.2,38.7c126.3,0,245.3-13.8,335.2-38.7c45.2-12.5,81.1-27.4,106.7-44.3c31.9-20.9,48.1-45.1,48.1-71.7V190.5C990,163.8,973.8,139.7,941.9,118.8L941.9,118.8z M178.7,124.2c85.5-23.7,199.6-36.8,321.3-36.8c121.7,0,235.9,13.1,321.3,36.8c92.6,25.7,117.1,54.6,117.1,66.3c0,11.7-24.4,40.6-117.1,66.3c-85.5,23.7-199.6,36.8-321.3,36.8c-121.7,0-235.9-13.1-321.3-36.8c-92.6-25.7-117.1-54.6-117.1-66.3C61.6,178.8,86,149.9,178.7,124.2L178.7,124.2z M821.3,875.8c-85.5,23.7-199.6,36.8-321.3,36.8c-121.7,0-235.9-13.1-321.3-36.8c-92.6-25.7-117.1-54.6-117.1-66.3V677.1c25.4,15.9,60,30.1,103.3,42.1c89.9,25,208.9,38.7,335.2,38.7c126.3,0,245.3-13.8,335.2-38.7c43.2-12,77.9-26.1,103.3-42.1v132.4C938.4,821.1,914,850,821.3,875.8L821.3,875.8z M821.3,669.5c-85.5,23.7-199.6,36.8-321.3,36.8c-121.7,0-235.9-13.1-321.3-36.8c-92.6-25.7-117.1-54.6-117.1-66.3V470.8c25.4,15.9,60,30.1,103.3,42.1c89.9,25,208.9,38.7,335.2,38.7c126.3,0,245.3-13.8,335.2-38.7c43.2-12,77.9-26.2,103.3-42.1v132.4C938.4,614.9,914,643.8,821.3,669.5L821.3,669.5z M821.3,463.2C735.8,486.9,621.7,500,500,500c-121.7,0-235.9-13.1-321.3-36.8c-92.6-25.7-117.1-54.6-117.1-66.3V264.5c25.4,15.9,60,30.1,103.3,42.1c89.9,25,208.9,38.7,335.2,38.7c126.3,0,245.3-13.8,335.2-38.7c43.2-12,77.9-26.2,103.3-42.1v132.4C938.4,408.6,914,437.4,821.3,463.2L821.3,463.2z"/></g>
</svg>