<?xml version="1.0" encoding="UTF-8" standalone="no"?>
<!DOCTYPE svg PUBLIC "-//W3C//DTD SVG 1.1//EN" "http://www.w3.org/Graphics/SVG/1.1/DTD/svg11.dtd">
<svg version="1.1" xmlns="http://www.w3.org/2000/svg" xmlns:xlink="http://www.w3.org/1999/xlink" preserveAspectRatio="xMidYMid meet" viewBox="-1 105.66666666666666 643.979107606334 430.66666666666674" width="639.98" height="426.67"><defs><path d="M533.33 284.44C533.33 252.44 533.33 234.67 533.33 231.11C533.33 201.67 509.44 177.78 480 177.78C468.15 177.78 408.89 177.78 302.22 177.78L231.11 106.67C124.44 106.67 65.19 106.67 53.33 106.67C23.89 106.67 0 130.56 0 160C0 192 0 448 0 480C0 509.44 23.89 533.33 53.33 533.33C97.78 533.33 453.33 533.33 497.78 533.33C516.11 533.33 533.22 523.89 543 508.22C551.88 494 622.9 380.22 631.78 366C654 330.56 628.44 284.44 586.56 284.44C579.46 284.44 561.72 284.44 533.33 284.44ZM53.33 166.67C53.33 163 56.33 160 60 160C69.93 160 119.6 160 209 160L280.11 231.11C396.04 231.11 460.45 231.11 473.33 231.11C477 231.11 480 234.11 480 237.78C480 240.89 480 256.44 480 284.44C293.33 284.44 189.63 284.44 168.89 284.44C150.22 284.44 132.89 294.22 123.22 310.22C118.56 317.94 95.27 356.53 53.33 426C53.33 287.69 53.33 201.24 53.33 166.67ZM497.78 480L80 480L165.78 337.78L586.67 337.78L497.78 480Z" id="aMNS1NFFH"></path></defs><g><g><use xlink:href="#aMNS1NFFH" opacity="1" fill="#333333" fill-opacity="1"></use><g><use xlink:href="#aMNS1NFFH" opacity="1" fill-opacity="0" stroke="#000000" stroke-width="1" stroke-opacity="0"></use></g></g></g></svg>