<?xml version="1.0" encoding="UTF-8"?>
<svg viewBox="0 0 440 290" xmlns="http://www.w3.org/2000/svg">
<defs>
<style type="text/css"><![CDATA[
    .str0 {stroke:#FF6C00;stroke-width:20.8296}
    .fil2 {fill:none}
    .fil0 {fill:#414141}
    .fil1 {fill:#CCCCCC}
    .fil3 {fill:#FF6600}
   ]]></style>
</defs>
<g>
<title>background</title>
<rect x="-1" y="-1" width="442" height="292" fill="none"/>
</g>
<g>
<title>Layer 1</title>
<path class="fil0" d="m78.051 225.8v-88h25c5 0 10 1 14 4s6 7 6 13v54c0 5-2 10-6 13s-8 4-14 4h-25zm25-16v-56c0-3-1-5-5-5v66c4 0 5-2 5-5zm66 16h-16v-2c-1 2-5 3-11 3-10 0-15-3-15-11v-14c0-4 1-6 4-9 2-2 7-5 14-9 4-2 6-3 6-5v-10c0-3-1-4-3-4s-4 3-4 9c0 1 0 2 1 4v5h-17v-14c0-10 7-15 21-15 13 0 20 5 20 15v57zm-18-13v-19c-4 1-6 3-6 6v13c0 2 1 3 3 3s3-1 3-3zm57 13h-12c-7 0-12-1-14-3-1-3-2-7-2-14v-44h-8v-11h8v-14h17v14h10v11h-10v44c0 2 1 3 2 4 2 1 4 1 9 1v12zm45 0h-16v-2c-1 2-5 3-11 3-10 0-15-3-15-11v-14c0-4 1-6 4-9 2-2 7-5 14-9 4-2 6-3 6-5v-10c0-3-1-4-3-4s-4 3-4 9c0 1 1 2 1 4v5h-17v-14c0-10 7-15 21-15 13 0 20 5 20 15v57zm-18-13v-19c-4 1-6 3-6 6v13c0 2 1 3 3 3s3-1 3-3zm37 11-2 2h-13v-88h17v19c2-2 6-3 11-3 3 0 6 1 9 3 3 1 4 4 4 7v52c0 3-2 6-5 8s-7 3-11 3-7-1-10-3zm8-11v-45c0-2-1-3-3-3s-3 1-3 3v45c0 2 1 3 3 3s3-1 3-3zm64 13h-16v-2c-1 2-5 3-11 3-10 0-15-3-15-11v-14c0-4 1-6 4-9 2-2 7-5 14-9 4-2 6-3 6-5v-10c0-3-1-4-3-4s-4 3-4 9c0 1 1 2 1 4v5h-17v-14c0-10 7-15 21-15 13 0 20 5 20 15v57zm-18-13v-19c-4 1-6 3-6 6v13c0 2 1 3 3 3s3-1 3-3zm22-16h17v16c0 2 1 3 3 3s3-2 3-7c0-6-1-10-3-11-9-5-15-9-17-11-2-1-3-4-3-8v-10c0-10 7-15 21-15 13 0 20 5 20 14v15h-17v-9c0-6-1-9-3-9-3 0-4 2-4 6s1 7 2 9 6 5 16 10c4 3 6 7 6 11v11c0 10-7 15-21 15-13 0-20-4-20-14v-16zm86-1h-24v17c0 2 1 3 3 3s3-1 3-3v-15h18v15c0 10-7 14-21 14-13 0-20-5-20-15v-43c0-10 7-15 20-15 14 0 21 5 21 15v27zm-18-11v-16c0-3-1-4-3-4s-3 1-3 4v16h6z"/>
<path class="fil1" d="m268.05 258.8h-11v-3c0-3-1-4-1-5s0-1-1-1-1 0-2 1v4 21 3c1 1 1 1 2 1s1 0 1-1c1 0 1-2 1-4v-5h-2v-6h13v23h-7l-1-3-3 3c-1 0-3 1-4 1-2 0-4-1-6-2l-3-3c-1-1-2-3-2-4v-7-13-9c1-2 2-3 4-5s5-2 8-2c4 0 6 0 9 2 2 1 3 3 4 5 0 1 1 4 1 8v1zm4-15h8 11c2 1 3 2 4 3 2 2 2 5 2 8 0 4 0 6-1 7s-2 2-5 2c2 1 4 1 5 2 0 1 1 2 1 3v6 12h-10v-15c0-2 0-3-1-4 0-1-1-1-3-1v20h-11v-43zm11 7v10c2 0 3-1 3-1 1 0 1-1 1-3v-3c0-1 0-2-1-2 0-1-1-1-3-1zm38-7 6 43h-11l-1-8h-4v8h-12l6-43h16zm-6 27c-1-5-1-11-2-18-1 8-2 14-2 18h4zm14-27h12 7c1 1 3 1 3 2 1 1 2 2 2 4v6 3 6c-1 2-2 3-4 3-1 1-3 1-5 1h-3v18h-12v-43zm12 7v11c1 0 2 0 2-1 1 0 1-1 1-3v-4c0-1 0-2-1-2 0-1-1-1-2-1zm41-7v43h-11v-18h-3v18h-11v-43h11v15h3v-15h11zm5 0h19v8h-8v8h7v9h-7v9h8v9h-19v-43zm23 0h8 10c2 1 4 2 5 3 1 2 2 5 2 8 0 4-1 6-2 7 0 1-2 2-4 2 2 1 3 1 4 2s1 2 1 3c1 1 1 3 1 6v12h-11v-15-4c-1-1-2-1-3-1v20h-11v-43zm11 7v10c1 0 2-1 3-1v-3-3-2c-1-1-2-1-3-1z"/>
<path class="fil2 str0" d="m177.05 265.8h-8m-7 0h-7m-7 0h-104c-17 0-32-14-32-32v-189c0-18 15-32 32-32h189c18 0 32 14 32 32v1m0 8v7m0 7v6"/>
<polygon class="fil3" points="221.05 265.8 184.05 287.8 184.05 243.8"/>
<path class="fil3" d="m265.05 80.798c11 0 20 9 20 20s-9 20-20 20-20-9-20-20 9-20 20-20zm0 9c6 0 11 5 11 11s-5 10-11 10-11-4-11-10 5-11 11-11z"/>
</g>
</svg>
