<svg fill="#000000" xmlns="http://www.w3.org/2000/svg" viewBox="0 0 50 50" width="50px" height="50px"><path d="M 27.40625 9.59375 C 25.589844 9.59375 24.027344 9.949219 22.65625 10.6875 C 21.238281 11.394531 19.660156 12.707031 18.90625 13.78125 C 18.625 14.15625 18.363281 14.5 18.1875 14.71875 C 16.101563 13.929688 13.628906 13.828125 11.90625 14.4375 C 8.367188 15.578125 5.796875 19.019531 5.6875 22.8125 C 5.6875 23.027344 5.675781 23.234375 5.65625 23.40625 C 5.621094 23.417969 5.570313 23.425781 5.53125 23.4375 C 3.316406 24.019531 1.539063 25.40625 0.625 27.28125 C -0.0117188 28.199219 0 28.785156 0 30.40625 C 0 32.152344 -0.00390625 32.558594 0.59375 33.625 C 1.523438 35.597656 3.570313 37.320313 5.53125 37.78125 C 6.046875 37.925781 8.332031 37.976563 10.5 38 C 9.53125 36.457031 9 34.5625 9 32.40625 C 9 30.921875 9.15625 30.035156 9.625 28.9375 C 10.632813 26.496094 12.996094 24.621094 16 23.8125 C 16.058594 23.621094 16.113281 23.40625 16.1875 23.21875 C 17.203125 20.320313 19.105469 17.910156 21.28125 16.75 L 21.3125 16.71875 L 21.34375 16.71875 C 23.40625 15.6875 24.664063 15.40625 27 15.40625 C 30.441406 15.40625 32.558594 16.269531 34.9375 18.6875 C 35.824219 18.457031 36.71875 18.3125 37.625 18.3125 C 37.933594 18.3125 38.234375 18.347656 38.53125 18.375 C 38.441406 18.078125 38.351563 17.773438 38.25 17.46875 C 36.582031 12.683594 32.328125 9.59375 27.40625 9.59375 Z M 27 17.40625 C 24.984375 17.40625 24 17.609375 22.21875 18.5 C 20.464844 19.433594 18.910156 21.5 18.0625 23.9375 C 17.863281 24.433594 17.714844 24.976563 17.6875 25.375 C 17.574219 25.425781 17.382813 25.519531 17 25.625 C 14.367188 26.195313 12.285156 27.707031 11.46875 29.6875 C 11.101563 30.550781 11 31.199219 11 32.40625 C 11 36.234375 12.890625 38.953125 16.21875 39.875 C 16.257813 39.886719 16.300781 39.898438 16.34375 39.90625 C 17.113281 40.015625 20.203125 40 31.6875 40 L 46 40 C 46.15625 40 46.296875 39.976563 46.4375 39.90625 L 47.0625 39.59375 C 48.71875 38.765625 49.75 37.019531 50 34.65625 C 50.230469 31.304688 48.757813 28.988281 45.71875 27.9375 L 45.4375 27.84375 L 45.40625 27.3125 C 45.046875 23.265625 41.769531 20.3125 37.625 20.3125 C 36.628906 20.3125 35.644531 20.503906 34.6875 20.84375 L 34.375 20.9375 L 33.71875 20.3125 C 31.625 18.105469 30 17.40625 27 17.40625 Z"/></svg>