<?xml version="1.0" encoding="UTF-8" standalone="no"?>
<!DOCTYPE svg PUBLIC "-//W3C//DTD SVG 1.1//EN" "http://www.w3.org/Graphics/SVG/1.1/DTD/svg11.dtd">
<svg version="1.1" xmlns="http://www.w3.org/2000/svg" xmlns:xlink="http://www.w3.org/1999/xlink" preserveAspectRatio="xMidYMid meet" viewBox="20.772727561615387 0.3379369543544892 23.606628196312375 32.41255753756754" width="19.61" height="28.41"><defs><path d="M26.17 4.71L21.77 8.09" id="eNCBW9Pfg"></path><path d="M26.17 4.71L21.77 8.09" id="gVIxerBNF"></path><path d="M26.17 4.71L21.77 1.34" id="a30VMOmmAq"></path><path d="M26.17 4.71L21.77 1.34" id="aKtaJGEyY"></path><path d="M36.04 27.01C36.04 25.5 37.25 24.27 38.71 24.27C40.19 24.27 41.38 25.5 41.38 27.01C41.38 28.51 40.19 29.75 38.71 29.75C37.25 29.75 36.04 28.51 36.04 27.01Z" id="a1g4nMNxZ"></path><path d="M36.04 27.01C36.04 25.5 37.25 24.27 38.71 24.27C40.19 24.27 41.38 25.5 41.38 27.01C41.38 28.51 40.19 29.75 38.71 29.75C37.25 29.75 36.04 28.51 36.04 27.01Z" id="d1pJSV4E2V"></path><path d="M36.51 26.98L31.53 26.98L31.46 4.71L21.77 4.71" id="e4yly7lw4"></path><path d="M36.51 26.98L31.53 26.98L31.46 4.71L21.77 4.71" id="a3c2q4Ritm"></path></defs><g><g><use xlink:href="#eNCBW9Pfg" opacity="1" fill="#000000" fill-opacity="0"></use><g><use xlink:href="#eNCBW9Pfg" opacity="1" fill-opacity="0" stroke="#000000" stroke-width="1" stroke-opacity="0"></use></g></g><g><use xlink:href="#gVIxerBNF" opacity="1" fill="#000000" fill-opacity="0"></use><g><use xlink:href="#gVIxerBNF" opacity="1" fill-opacity="0" stroke="#333333" stroke-width="2" stroke-opacity="1"></use></g></g><g><use xlink:href="#a30VMOmmAq" opacity="1" fill="#000000" fill-opacity="0"></use><g><use xlink:href="#a30VMOmmAq" opacity="1" fill-opacity="0" stroke="#000000" stroke-width="1" stroke-opacity="0"></use></g></g><g><use xlink:href="#aKtaJGEyY" opacity="1" fill="#000000" fill-opacity="0"></use><g><use xlink:href="#aKtaJGEyY" opacity="1" fill-opacity="0" stroke="#333333" stroke-width="2" stroke-opacity="1"></use></g></g><g><use xlink:href="#a1g4nMNxZ" opacity="1" fill="#333333" fill-opacity="1"></use><g><use xlink:href="#a1g4nMNxZ" opacity="1" fill-opacity="0" stroke="#000000" stroke-width="1" stroke-opacity="0"></use></g></g><g><use xlink:href="#d1pJSV4E2V" opacity="1" fill="#000000" fill-opacity="0"></use><g><use xlink:href="#d1pJSV4E2V" opacity="1" fill-opacity="0" stroke="#000000" stroke-width="1" stroke-opacity="0"></use></g></g><g><use xlink:href="#e4yly7lw4" opacity="1" fill="#000000" fill-opacity="0"></use><g><use xlink:href="#e4yly7lw4" opacity="1" fill-opacity="0" stroke="#000000" stroke-width="1" stroke-opacity="0"></use></g></g><g><use xlink:href="#a3c2q4Ritm" opacity="1" fill="#000000" fill-opacity="0"></use><g><use xlink:href="#a3c2q4Ritm" opacity="1" fill-opacity="0" stroke="#333333" stroke-width="2" stroke-opacity="1"></use></g></g></g></svg>