<?xml version="1.0" encoding="UTF-8" standalone="no"?>
<!DOCTYPE svg PUBLIC "-//W3C//DTD SVG 1.1//EN" "http://www.w3.org/Graphics/SVG/1.1/DTD/svg11.dtd">
<svg version="1.1" xmlns="http://www.w3.org/2000/svg" xmlns:xlink="http://www.w3.org/1999/xlink" preserveAspectRatio="xMidYMid meet" viewBox="9 9 624 624" width="620" height="620"><defs><path d="M10 320C10 491.25 148.75 630 320 630C491.25 630 630 491.25 630 320C630 148.75 491.25 10 320 10C148.75 10 10 148.75 10 320ZM70 320C70 181.88 181.88 70 320 70C458.13 70 570 181.88 570 320C570 458.13 458.13 570 320 570C181.88 570 70 458.13 70 320ZM369.5 320C416.15 366.65 442.07 392.57 447.25 397.75C453.13 403.63 453.13 413.13 447.25 419C444.43 421.83 421.83 444.43 419 447.25C413.13 453.13 403.63 453.13 397.75 447.25C392.57 442.07 366.65 416.15 320 369.5C273.35 416.15 247.43 442.07 242.25 447.25C236.38 453.13 226.88 453.13 221 447.25C218.18 444.43 195.58 421.83 192.75 419C186.88 413.13 186.88 403.63 192.75 397.75C197.93 392.57 223.85 366.65 270.5 320C223.85 273.35 197.93 247.43 192.75 242.25C186.88 236.38 186.88 226.88 192.75 221C195.58 218.18 218.18 195.58 221 192.75C226.88 186.88 236.38 186.88 242.25 192.75C247.43 197.93 273.35 223.85 320 270.5C366.65 223.85 392.57 197.93 397.75 192.75C403.63 186.88 413.13 186.88 419 192.75C421.83 195.58 444.43 218.18 447.25 221C453.13 226.88 453.13 236.38 447.25 242.25C436.88 252.62 410.97 278.53 369.5 320Z" id="bejBvj9w"></path></defs><g><g><use xlink:href="#bejBvj9w" opacity="1" fill="#333333" fill-opacity="1.00"></use><g><use xlink:href="#bejBvj9w" opacity="1" fill-opacity="0" stroke="#000000" stroke-width="1" stroke-opacity="0"></use></g></g></g></svg>