<?xml version="1.0" encoding="utf-8"?>
<svg viewBox="79 -1.125 484 644.125" xmlns="http://www.w3.org/2000/svg">
  <g>
    <g>
      <path d="M437.5 17.5C426.25 6.25 411 -0.12 395.13 -0.12C369.61 -0.12 165.51 -0.12 140 -0.12C106.88 0 80 26.88 80 60C80 112 80 528 80 580C80 613.13 106.88 640 140 640C176 640 464 640 500 640C533.13 640 560 613.13 560 580C560 538.49 560 206.39 560 164.88C560 149 553.63 133.63 542.38 122.38C521.4 101.4 447.99 27.99 437.5 17.5ZM400 160L400 64.88L495.13 160L400 160ZM140 60L340 60C340 138 340 181.33 340 190C340 206.63 353.38 220 370 220C378.67 220 422 220 500 220L500 580L140 580L140 60Z" transform="matrix(1, 0, 0, 1, 0, 0)" opacity="1" fill="#333333" fill-opacity="1"/>
      <g>
        <path d="M437.5 17.5C426.25 6.25 411 -0.12 395.13 -0.12C369.61 -0.12 165.51 -0.12 140 -0.12C106.88 0 80 26.88 80 60C80 112 80 528 80 580C80 613.13 106.88 640 140 640C176 640 464 640 500 640C533.13 640 560 613.13 560 580C560 538.49 560 206.39 560 164.88C560 149 553.63 133.63 542.38 122.38C521.4 101.4 447.99 27.99 437.5 17.5ZM400 160L400 64.88L495.13 160L400 160ZM140 60L340 60C340 138 340 181.33 340 190C340 206.63 353.38 220 370 220C378.67 220 422 220 500 220L500 580L140 580L140 60Z" transform="matrix(1, 0, 0, 1, 0, 0)" opacity="1" fill-opacity="0" stroke="#000000" stroke-width="1" stroke-opacity="0"/>
      </g>
    </g>
  </g>
  <text style="fill: rgb(51, 51, 51); font-family: Arial, sans-serif; font-size: 14.3px; font-weight: 700; white-space: pre;" transform="matrix(7.06726, 0, 0, 10.241843, -1554.713135, -2599.943115)" x="243.659" y="290.61">DEMO</text>
</svg>