<?xml version="1.0" encoding="utf-8"?>
<!-- Svg Vector Icons : http://www.onlinewebfonts.com/icon -->
<!DOCTYPE svg PUBLIC "-//W3C//DTD SVG 1.1//EN" "http://www.w3.org/Graphics/SVG/1.1/DTD/svg11.dtd">
<svg version="1.1" xmlns="http://www.w3.org/2000/svg" xmlns:xlink="http://www.w3.org/1999/xlink" x="0px" y="0px" viewBox="0 0 1000 1000" enable-background="new 0 0 1000 1000" xml:space="preserve">
<metadata> Svg Vector Icons : http://www.onlinewebfonts.com/icon </metadata>
<g><path d="M504.5,179.8c-42.9-6-86.9-169.8-86.6-169.8C386.6,19.2,134.1,93.5,232,158.8c163.5,109,156.2,329.1-86.2,513c-339.8,257.8,336.3,332.3,345.9,316c167.6-282.2,88.8-490.1,88.8-490.1s196.6-63.8,366.5-89.7C969,404.8,850.1,228.6,504.5,179.8L504.5,179.8L504.5,179.8z M771.6,280.2c0,0-121.2,33.7-177.4,62.9c0,0,31.4-97.7,30.3-114.5C624.5,228.5,745.7,262.2,771.6,280.2L771.6,280.2L771.6,280.2z M567.2,343.1c0,0-55.6-32.6-75.5-38.2l118.2-76.3C609.9,228.5,609.9,270.1,567.2,343.1L567.2,343.1L567.2,343.1z M467.3,532.8l99.9,59.5c-14.6,14.6-110.5,59.5-110.5,59.5C470.9,618.1,467.3,532.8,467.3,532.8L467.3,532.8L467.3,532.8z M483,528.3l86.4-29.4c7.9,30.1,5.6,79.9,5.6,79.9C550.4,568.7,483,528.3,483,528.3L483,528.3L483,528.3z M276.5,724.8c0,0,77.5-131.3,74.7-145.9c0,0,8.8,35.9,65.8,87.6C417,666.4,375.3,694.4,276.5,724.8L276.5,724.8L276.5,724.8z M411.4,692.2c0,0-15.4,71.6-52.5,127.4c0,0-54.3-21.9-93.6-73.5C265.2,746.1,397,702.3,411.4,692.2L411.4,692.2L411.4,692.2z M436.8,318.4c0,0-44,42.7-70.7,67.4c0,0-1.1-93.2-7.2-96.5C358.9,289.2,412.9,302.6,436.8,318.4L436.8,318.4z M366,262.2l75.5-65.1c0,0,19.1,21.3,14.6,95.4C456.1,292.5,387.1,266.7,366,262.2L366,262.2L366,262.2z M447.1,337.4c0,0-12.3,61.7-41.5,98.8c0,0-27.4-23.6-39.5-31.4C366,404.8,439.3,344.2,447.1,337.4L447.1,337.4L447.1,337.4z M397.8,477.8c0,0,21.2,13.5,19,47.2c0,0-141.5,64-162.8,78.6C254,603.5,390,491.2,397.8,477.8L397.8,477.8L397.8,477.8z M366,572.1l76.6-31.4c0,0,11.2,52.8-13.5,111.1C429.1,651.8,390.3,629.2,366,572.1L366,572.1L366,572.1z M436.8,519.3c0,0-8.7-57.3-20-66.2c0,0,49.4-23.6,122.4-66.2C539.2,386.8,446.6,504.7,436.8,519.3L436.8,519.3z M442.6,417.2c0,0,26.9-74.1,25.8-90.9l70.7,38.2L442.6,417.2z M586.3,224.1c-7.9,3.4-117.9,65.1-117.9,65.1c16.8-51.6-11.7-92.1-11.7-92.1L586.3,224.1L586.3,224.1z M468.4,175.8l-78.6-12.3l58.4-35.9L468.4,175.8z M295.6,77c6.7-5.6,117.9-55,117.9-55s31.4,78.6,21.3,78.6C424.7,100.6,288.8,82.6,295.6,77L295.6,77L295.6,77z M436.8,115.2L366,158.9h-17.7c0,0-65.1-66.2-67.4-73C281,86,419.7,117.4,436.8,115.2L436.8,115.2L436.8,115.2z M267.5,93.8l49.4,57.8c0,0-77.5-17.4-83.1-24.1C228.2,120.8,267.5,93.8,267.5,93.8L267.5,93.8z M259.6,158.9l49.4,16.8l18,59.5C327,235.3,279.8,173.5,259.6,158.9L259.6,158.9L259.6,158.9z M321.4,175.8l107.8,15.7l-80.8,60.6C348.3,238.7,321.4,175.8,321.4,175.8L321.4,175.8L321.4,175.8z M352.8,436.2c0,0,19.1,5.6,28.1,16.8c0,0-32.6,28.9-59.5,45.9C321.4,498.9,351.7,446.3,352.8,436.2L352.8,436.2L352.8,436.2z M285.4,544.6c0,0,41.3-38.2,89.8-58.9L240.5,603.5L285.4,544.6L285.4,544.6z M314.6,592.3c0,0-32.6,92.1-65.1,124.6c0,0-14.6-18-16.8-84.2C232.7,632.7,301.2,596.8,314.6,592.3L314.6,592.3L314.6,592.3z M204.6,645.1c0,0-2.2,35.9,22.5,93.2c0,0-125.7,39.3-145.9,39.3C81.1,777.5,94.6,697.8,204.6,645.1L204.6,645.1z M81.1,787.6c37,0,140.3-29.2,140.3-29.2c-5.6,20.2-84.2,122.4-84.2,122.4C75.5,838.1,81.1,787.6,81.1,787.6L81.1,787.6L81.1,787.6z M146.2,886.4l94.3-121.2c0,0,41.5,39.3,86.4,64l-175.8,64L146.2,886.4L146.2,886.4z M162,895.4l178.5-48.3l-64,96.5C276.5,943.7,203.5,933.6,162,895.4L162,895.4L162,895.4z M366,847.1c0,0,74.5,32.6,150.8,33.7c0,0-179.7,69.2-231.4,71.7C285.4,952.5,366.9,853.9,366,847.1L366,847.1L366,847.1z M483,984.1c0,0-125-10.4-161.7-31.6c0,0,109.6-21.1,200.2-59.3C521.5,893.2,494.3,970.6,483,984.1L483,984.1L483,984.1z M521.5,875.2c0,0-126.1-22.5-146.3-46c0,0,175.1-70.7,181.3-83.1C556.6,746.1,542.6,848.8,521.5,875.2L521.5,875.2L521.5,875.2z M386.5,805.6l56.1-119c0,0,83.1,43.8,113.9,50.5C556.6,737.1,414.6,806.7,386.5,805.6L386.5,805.6L386.5,805.6z M561.6,724.8c-50.5-12.3-104.8-53.9-104.8-53.9C481,664.1,575.4,608,575.4,608C582.4,668.6,561.6,724.8,561.6,724.8L561.6,724.8z M462.8,509.2c0,0,98.8-110,104.4-123.5c0,0,61.7,30.3,83.1,62.9C650.3,448.6,488.9,499.1,462.8,509.2L462.8,509.2z M594.2,358.8c0,0,171.8-65.1,188.6-66.2c0,0-42.7,79.7-113.4,149.3C669.4,441.8,630.9,380.1,594.2,358.8L594.2,358.8L594.2,358.8z M699.7,436.2c0,0,85.3-98.8,102.2-143.7c0,0,113.4,75.2,130.2,110C932.1,402.6,743.5,418.3,699.7,436.2L699.7,436.2L699.7,436.2z"/></g>
</svg>