<?xml version="1.0" encoding="utf-8"?>
<!-- Svg Vector Icons : http://www.onlinewebfonts.com/icon -->
<!DOCTYPE svg PUBLIC "-//W3C//DTD SVG 1.1//EN" "http://www.w3.org/Graphics/SVG/1.1/DTD/svg11.dtd">
<svg version="1.1" xmlns="http://www.w3.org/2000/svg" xmlns:xlink="http://www.w3.org/1999/xlink" x="0px" y="0px" viewBox="0 0 1000 1000" enable-background="new 0 0 1000 1000" xml:space="preserve">
<metadata> Svg Vector Icons : http://www.onlinewebfonts.com/icon </metadata>
<g><g transform="translate(0.000000,630.000000) scale(0.100000,-0.100000)"><path d="M498.6,6087.8c-44.4-12.3-101.1-33.7-127.1-46c-125.6-65.9-246.6-254.3-268-415.1c-23-186.9,72-433.5,261.9-680.1c467.2-608.1,528.4-703,588.2-926.7c47.5-170,254.3-752.1,326.3-919c121-274.2,309.4-585.1,392.1-646.4c23-16.8,55.1-55.1,70.5-84.2c29.1-53.6,29.1-55.1-4.6-122.5c-18.4-38.3-49-140.9-68.9-228.2c-19.9-87.3-53.6-225.2-75-304.8C1408.4,1031.8,1465,252.1,1736.2-296.2c128.7-257.3,297.1-453.4,451.8-525.4c101.1-47.5,246.6-50.6,338.5-4.6c147,70.5,214.4,203.7,251.2,488.6c19.9,162.4,75,474.8,88.8,496.3c4.6,7.7,73.5-116.4,154.7-277.2c81.2-159.3,179.2-333.9,219-389c160.8-222.1,418.1-481,724.5-727.5c76.6-59.7,182.3-156.2,237.4-212.9c91.9-96.5,260.4-222.1,295.6-222.1c16.9,0-39.8,53.6-147,140.9c-271.1,222.1-784.2,980.3-1133.4,1675.7c-95,188.4-286.4,634.1-286.4,666.3c-1.5,38.3-61.3,154.7-76.6,148.6c-32.2-10.7-261.9-314-306.3-404.4c-84.2-171.5-133.3-413.6-191.5-954.2l-10.7-96.5l-53.6,7.7c-70.4,12.2-150.1,75.1-203.7,159.3c-62.8,99.6-160.8,329.3-205.2,484c-79.6,274.2-93.4,389.1-91.9,791.9c0,479.4,12.3,546.8,197.6,1064.5c91.9,258.9,104.2,369.1,49,474.8c-21.5,42.9-75.1,111.8-117.9,153.2c-203.7,196.1-343.1,476.4-551.4,1110.5c-82.7,254.3-182.3,526.9-220.6,603.5c-72,148.6-255.8,416.6-471.8,687.7c-144,182.3-249.7,370.7-265,474.8c-21.4,136.3,72,237.4,217.5,240.5c153.2,1.5,661.7-211.4,923.6-389c38.3-24.5,122.5-88.8,188.4-142.4c64.3-52.1,133.3-99.6,153.2-102.6c38.3-9.2,124.1-16.9,439.6-39.8c280.3-21.4,390.6-44.4,611.1-131.7c586.6-232.8,1216.2-664.8,1741.5-1194.7c522.3-525.4,977.2-1196.2,1179.4-1736.9c38.3-105.7,147.1-349.2,239-543.7c93.4-193,229.7-488.6,304.8-655.6c268-595.8,416.6-850.1,539.2-922.1c38.3-21.5,237.4-96.5,442.7-167c595.8-203.7,586.6-199.1,1049.2-525.4c142.4-99.6,318.6-219,392.1-265c144-88.8,286.4-214.4,286.4-249.7c0-16.9-56.7-23-294.1-30.6c-389-12.3-606.5-49-926.7-156.2c-137.9-45.9-263.4-91.9-278.8-102.6c-47.5-29.1-64.3-79.7-39.8-114.9c12.3-16.8,33.7-61.3,47.5-98c64.3-163.9,248.1-389.1,439.6-536.1c254.3-197.6,402.8-286.4,795-481c317.1-156.2,422.7-216,586.6-335.4c110.3-79.6,240.5-182.3,291-228.2c81.2-72,160.8-128.7,160.8-113.3c0,3.1-16.8,41.4-38.3,84.2c-21.5,44.4-38.3,84.2-38.3,88.8c0,6.1-58.2,73.5-130.2,150.1c-70.4,76.6-180.7,197.6-242,269.6c-205.3,237.4-461,447.2-781.2,637.2c-258.9,153.2-425.8,280.3-484,369.2c-26,38.3-47.5,76.6-47.5,84.2c0,6.1,18.4,15.3,42.9,19.9c23,6.1,151.6,36.8,286.4,70.4c134.8,32.2,338.5,70.5,451.8,82.7c194.5,21.4,297.1,42.9,536.1,111.8c125.6,36.8,134.8,64.3,50.5,167c-33.7,41.4-98,122.5-145.5,182.3c-133.3,167-666.3,592.8-1112,886.9c-191.5,125.6-654,353.8-885.3,436.5c-127.1,44.4-171.6,73.5-217.5,142.4c-56.7,82.7-560.6,1115.1-712.2,1458.2c-62.8,144-154.7,359.9-202.2,482.5c-108.7,274.2-142.4,341.6-294.1,582c-525.4,836.3-1119.6,1450.5-1942.2,2005c-436.5,294.1-649.4,413.6-857.7,480.9c-295.6,96.5-497.8,136.3-787.3,157.8c-312.5,21.4-289.5,13.8-461,160.8c-131.7,113.3-424.3,277.2-666.3,373.7C944.3,6090.9,660.9,6133.8,498.6,6087.8z"/><path d="M2157.4,4448.9c-7.7-3.1-35.2-9.2-58.2-13.8l-42.9-10.7l35.2-49c18.4-27.6,67.4-87.3,108.7-133.3c47.5-52.1,104.2-144,151.6-245.1c41.4-87.3,78.1-162.4,82.7-166.9c10.7-10.7,84.2,62.8,107.2,110.3c12.3,23,29.1,79.7,38.3,125.6c15.3,79.7,12.3,88.8-33.7,176.1c-68.9,130.2-188.4,214.4-297.1,212.9C2207.9,4455.1,2166.6,4452,2157.4,4448.9z"/></g></g>
</svg>