<?xml version="1.0" encoding="utf-8"?>
<!-- Svg Vector Icons : http://www.onlinewebfonts.com/icon -->
<!DOCTYPE svg PUBLIC "-//W3C//DTD SVG 1.1//EN" "http://www.w3.org/Graphics/SVG/1.1/DTD/svg11.dtd">
<svg version="1.1" xmlns="http://www.w3.org/2000/svg" xmlns:xlink="http://www.w3.org/1999/xlink" x="0px" y="0px" viewBox="0 0 1000 1000" enable-background="new 0 0 1000 1000" xml:space="preserve">
<metadata> Svg Vector Icons : http://www.onlinewebfonts.com/icon </metadata>
<g><path d="M749.9,300.9c-16,1.1-19.6,5.5-25.7,7.8c-2.7,3.8-3.8,3.6-4.5,10c7.6,8.3,12.7,11,25.7,14.5c12.4-8.1,17.7-8.6,24.6-21.2C764.7,304.6,761,302.7,749.9,300.9z M401.5,309.8c-3.4,1.9-6.7,3.7-10,5.6c-0.4,0.7-0.7,1.5-1.1,2.2c1.2,26.5,42.1,36.7,52.5,12.3c0.4-3,0.7-6,1.1-8.9C432.8,312.8,422.5,309.1,401.5,309.8z"/><path d="M970.5,604.1c-22.2-15.1-58.6-3.5-88.2,1.1c-20.4,3.2-39.9-2.7-53.6-6.7c-3.4-10.6,15.1-30,21.2-40.2c17.5-34.2,35-68.5,52.5-102.7c26.2-60.3,93-234.9,59.2-321.6C930.4,54.2,815.2,7.9,696.9,10.1c-15.3,1.9-30.5,3.7-45.8,5.6c-18.6,4.8-37.2,9.7-55.8,14.5C565,27.8,525.5,15.4,487,22.4c-17.5,4.5-35,8.9-52.5,13.4c-12.7,6.3-25.3,12.7-38,19c-8.9-3.3-17.9-6.7-26.8-10c-24.2-5.6-48.4-11.2-72.6-16.7C188.4,6.5,97.1,43.2,58.3,107.2c-77.9,128.5,10.4,386.4,56.9,494.6c16.8,39,35.2,79.9,65.9,105c58.9,48.2,102.9-16.7,130.6-51.4c13-14.5,26.1-29,39.1-43.5c3.7-3.7,7.4-7.4,11.2-11.2c0,0,48.8,14.8,58.1,15.6c0,0.4,0,0.7,0,1.1c-7.8,10.7-17.8,26.6-30.1,32.4c-22.2,10.4-98.4,12.7-88.2,50.2c9.6,35.3,88,45.8,131.7,32.4c20.2-6.2,35.9-17.1,50.2-29c0.4,25.3,0.7,50.6,1.1,75.9c13.9,89.1-3.2,156.9,60.3,197.6c30.2,19.4,78.2,14.2,112.8,3.3c90.9-28.5,84.8-87.5,102.7-186.5c4.1-33.9,8.2-67.7,12.3-101.6c17.1,1.5,34.2,3,51.4,4.5c51.6-8.1,85.4-15.1,118.4-39.1C959.4,645.4,979.2,631.9,970.5,604.1z M695.8,39.1c95.8-0.6,148.3,19.5,199.9,60.3c13.5,10.7,31,25.7,38,42.4c13.7,32.9,6.7,91.8-1.1,126.2C912,359,882.3,441.8,841,512.5c-10.3,17.6-17.2,39.6-31.3,53.6c0,0.7,0,1.5,0,2.2c-6-5,13.4-52.5,16.7-72.6c8-47.5-15.9-85-7.8-129.5c4.9-27.2,16.6-75.7,10-107.2c-15-71.7-69.4-138.9-120.6-176.4C690.3,69.6,668,61.7,650,48c-0.7-0.4-1.5-0.7-2.2-1.1C663.8,44.3,679.8,41.7,695.8,39.1z M797.4,452.2c4.9,31.8-5.5,57.7-10,81.5c-0.7,0.4-1.5,0.7-2.2,1.1c-5.2-10.8-10.4-21.6-15.6-32.4c-23.3-39.8-46.6-81.4-61.4-129.5c-6-19.4-9.9-54.9,1.1-71.5c15.3-23.2,53.5-21.5,90.4-20.1c-3.3,29.8-6.7,59.6-10,89.3C792.2,397.9,794.8,425,797.4,452.2z M254.8,677.8c-7.4,7.5-18.5,21.1-36.8,16.7c-35.6-8.4-62.8-72.9-77-106.1C99.1,491.1,21.3,259.5,76.2,135.1c17.6-40,55.3-66.6,101.6-78.2c16.4-1.9,32.8-3.7,49.1-5.6C284.2,52,326.5,68.1,372,75.9c0,0.4,0,0.7,0,1.1c-52.9,69.2-65,105.7-81.5,213.3c0.7,34.6,1.5,69.2,2.2,103.8c-1.9,19-3.7,38-5.6,56.9c-10.6,65.6,24.3,102.4,50.2,132.9C309.9,615.2,282.3,646.5,254.8,677.8z M316.2,487.9c-5-27.5,1.6-60.2,5.6-87.1c-0.7-27.9-1.5-55.8-2.2-83.7c13-7.1,26.1-14.1,39.1-21.2c14.1-3.7,28.3-7.4,42.4-11.2c17.2-0.2,32.5,0.6,42.4,7.8c27.1,19.7,36.2,124.8,24.6,170.8c-6.7,26.5-18.5,48.6-27.9,71.5c-5.6,17.5-11.2,35-16.7,52.5C361.5,586.7,325.9,541.2,316.2,487.9z M468.1,680c-37,30.9-80.6,35-132.9,16.7c-0.4-0.7-0.7-1.5-1.1-2.2c24.9-6.4,57.4-10.7,77-23.4c15.3-16.4,30.5-32.8,45.8-49.1C495.1,623.2,486.4,664.7,468.1,680z M755,617.5c-12.1,20.3-6.2,57.6-11.2,84.9c-19,105,0.2,221.1-97.1,251.2c-17.9,5.5-45.1,13.2-68.1,6.7c-76.8-21.8-64.8-155.3-64.8-253.5c0-54.5,4.5-93.8-35.7-109.4c-6.8-2.6-16.4-5.8-25.7-3.3c-0.4,0-0.7,0-1.1,0c7.4-21.2,14.9-42.4,22.3-63.6c8.6-19.6,17.6-40.3,23.4-63.6c6.9-27.6,6-67.7,1.1-96c-12.9-74.7-26.3-137.1-123.9-110.5c-19.3,5.3-37.1,14.1-53.6,22.3C325,184.3,367.8,96,440.1,64.8c16-4.5,32-8.9,48-13.4c8.6-0.7,17.1-1.5,25.7-2.2c153,0.9,239.5,91.7,282.5,203.2c-94.5-6.1-144.4,32.4-116.1,128.4c23.5,79.8,68.7,147.6,109.4,211C776.2,601,763.4,603.3,755,617.5z M776.2,661c-0.9-30.4,7.8-32.3,26.8-42.4c14.3,2.1,25.4,11.5,41.3,14.5c31.9,6,64-3.8,91.6-6.7C914.6,652.2,823.8,684.2,776.2,661z"/></g>
</svg>